<mxfile host="app.diagrams.net" modified="2020-10-01T11:46:22.295Z" agent="5.0 (Macintosh; Intel Mac OS X 10_13_6) AppleWebKit/537.36 (KHTML, like Gecko) Chrome/85.0.4183.102 Safari/537.36" etag="WO5Ua_crPugoZuB2cJQQ" version="13.7.6" type="github">
  <diagram id="ENjshLIb4hmxt5g2uItI" name="Page-1">
    <mxGraphModel dx="1577" dy="995" grid="1" gridSize="10" guides="1" tooltips="1" connect="1" arrows="1" fold="1" page="1" pageScale="1" pageWidth="827" pageHeight="1169" math="0" shadow="0">
      <root>
        <mxCell id="0" />
        <mxCell id="1" parent="0" />
        <mxCell id="VhZChntwZuJe6j0MP377-67" value="" style="rounded=0;whiteSpace=wrap;html=1;shadow=0;fontSize=12;" vertex="1" parent="1">
          <mxGeometry x="20" y="120" width="1250" height="520" as="geometry" />
        </mxCell>
        <mxCell id="VhZChntwZuJe6j0MP377-18" value="网络设备" style="rounded=0;whiteSpace=wrap;html=1;fontSize=16;" vertex="1" parent="1">
          <mxGeometry x="1070" y="750" width="170" height="55" as="geometry" />
        </mxCell>
        <mxCell id="VhZChntwZuJe6j0MP377-20" value="硬件存储" style="rounded=0;whiteSpace=wrap;html=1;fontSize=16;" vertex="1" parent="1">
          <mxGeometry x="820" y="755" width="180" height="55" as="geometry" />
        </mxCell>
        <mxCell id="VhZChntwZuJe6j0MP377-22" value="进程管理子系统" style="text;html=1;strokeColor=none;fillColor=none;align=center;verticalAlign=middle;whiteSpace=wrap;rounded=0;fontSize=16;" vertex="1" parent="1">
          <mxGeometry x="60" y="170" width="140" height="20" as="geometry" />
        </mxCell>
        <mxCell id="VhZChntwZuJe6j0MP377-23" value="内存管理子系统" style="text;html=1;strokeColor=none;fillColor=none;align=center;verticalAlign=middle;whiteSpace=wrap;rounded=0;fontSize=16;" vertex="1" parent="1">
          <mxGeometry x="460" y="170" width="140" height="20" as="geometry" />
        </mxCell>
        <mxCell id="VhZChntwZuJe6j0MP377-24" value="文件子系统" style="text;html=1;strokeColor=none;fillColor=none;align=center;verticalAlign=middle;whiteSpace=wrap;rounded=0;fontSize=16;" vertex="1" parent="1">
          <mxGeometry x="845" y="170" width="140" height="20" as="geometry" />
        </mxCell>
        <mxCell id="VhZChntwZuJe6j0MP377-26" value="网络子系统" style="text;html=1;strokeColor=none;fillColor=none;align=center;verticalAlign=middle;whiteSpace=wrap;rounded=0;fontSize=16;" vertex="1" parent="1">
          <mxGeometry x="1075" y="170" width="140" height="20" as="geometry" />
        </mxCell>
        <mxCell id="VhZChntwZuJe6j0MP377-27" value="" style="shape=image;verticalLabelPosition=bottom;labelBackgroundColor=#ffffff;verticalAlign=top;aspect=fixed;imageAspect=0;image=http://1.bp.blogspot.com/-Crv4XwqWgtM/U5rSk94-EUI/AAAAAAAAAO4/dnbCAPQBNVY/s1600/block+hierarchy+(3).png;" vertex="1" parent="1">
          <mxGeometry x="1720" y="160" width="356" height="520" as="geometry" />
        </mxCell>
        <mxCell id="VhZChntwZuJe6j0MP377-38" value="物理内存" style="rounded=0;whiteSpace=wrap;html=1;fontSize=16;" vertex="1" parent="1">
          <mxGeometry x="1610" y="70" width="120" height="60" as="geometry" />
        </mxCell>
        <mxCell id="VhZChntwZuJe6j0MP377-39" value="内存条" style="rounded=0;whiteSpace=wrap;html=1;fontSize=16;" vertex="1" parent="1">
          <mxGeometry x="1635" y="170" width="70" height="30" as="geometry" />
        </mxCell>
        <mxCell id="VhZChntwZuJe6j0MP377-57" value="" style="group" vertex="1" connectable="0" parent="1">
          <mxGeometry x="550" y="380" width="690" height="212.99" as="geometry" />
        </mxCell>
        <mxCell id="VhZChntwZuJe6j0MP377-56" value="" style="group;fontSize=12;" vertex="1" connectable="0" parent="VhZChntwZuJe6j0MP377-57">
          <mxGeometry width="690" height="212.99" as="geometry" />
        </mxCell>
        <mxCell id="VhZChntwZuJe6j0MP377-58" value="" style="group" vertex="1" connectable="0" parent="VhZChntwZuJe6j0MP377-56">
          <mxGeometry x="-510" y="-169.12" width="1200" height="382.11" as="geometry" />
        </mxCell>
        <mxCell id="VhZChntwZuJe6j0MP377-1" value="虚拟内存" style="rounded=0;whiteSpace=wrap;html=1;fontSize=16;" vertex="1" parent="VhZChntwZuJe6j0MP377-58">
          <mxGeometry x="287.6165113182423" width="175.76564580559256" height="77.89473684210527" as="geometry" />
        </mxCell>
        <mxCell id="VhZChntwZuJe6j0MP377-3" value="物理内存" style="rounded=0;whiteSpace=wrap;html=1;fontSize=16;" vertex="1" parent="VhZChntwZuJe6j0MP377-58">
          <mxGeometry x="495.33954727030624" width="175.76564580559256" height="77.89473684210527" as="geometry" />
        </mxCell>
        <mxCell id="VhZChntwZuJe6j0MP377-4" value="共享内存" style="rounded=0;whiteSpace=wrap;html=1;fontSize=16;" vertex="1" parent="VhZChntwZuJe6j0MP377-58">
          <mxGeometry x="287.6165113182423" y="97.36842105263159" width="175.76564580559256" height="77.89473684210527" as="geometry" />
        </mxCell>
        <mxCell id="VhZChntwZuJe6j0MP377-5" value="内存映射" style="rounded=0;whiteSpace=wrap;html=1;fontSize=16;" vertex="1" parent="VhZChntwZuJe6j0MP377-58">
          <mxGeometry x="495.33954727030624" y="97.36842105263159" width="175.76564580559256" height="77.89473684210527" as="geometry" />
        </mxCell>
        <mxCell id="VhZChntwZuJe6j0MP377-6" value="页表" style="rounded=0;whiteSpace=wrap;html=1;fontSize=16;" vertex="1" parent="VhZChntwZuJe6j0MP377-58">
          <mxGeometry x="287.6165113182423" y="194.73684210526318" width="175.76564580559256" height="77.89473684210527" as="geometry" />
        </mxCell>
        <mxCell id="VhZChntwZuJe6j0MP377-8" value="slab" style="rounded=0;whiteSpace=wrap;html=1;fontSize=16;" vertex="1" parent="VhZChntwZuJe6j0MP377-58">
          <mxGeometry x="287.6165113182423" y="292.10526315789474" width="175.76564580559256" height="77.89473684210527" as="geometry" />
        </mxCell>
        <mxCell id="VhZChntwZuJe6j0MP377-9" value="VFS" style="rounded=0;whiteSpace=wrap;html=1;fontSize=16;" vertex="1" parent="VhZChntwZuJe6j0MP377-58">
          <mxGeometry x="782.9560585885486" width="175.76564580559256" height="77.89473684210527" as="geometry" />
        </mxCell>
        <mxCell id="VhZChntwZuJe6j0MP377-10" value="block layer" style="rounded=0;whiteSpace=wrap;html=1;fontSize=16;" vertex="1" parent="VhZChntwZuJe6j0MP377-58">
          <mxGeometry x="782.9560585885486" y="97.36842105263159" width="175.76564580559256" height="77.89473684210527" as="geometry" />
        </mxCell>
        <mxCell id="VhZChntwZuJe6j0MP377-11" value="缓存" style="rounded=0;whiteSpace=wrap;html=1;fontSize=16;" vertex="1" parent="VhZChntwZuJe6j0MP377-58">
          <mxGeometry x="782.9560585885486" y="194.73684210526318" width="175.76564580559256" height="77.89473684210527" as="geometry" />
        </mxCell>
        <mxCell id="VhZChntwZuJe6j0MP377-13" value="进程调度" style="rounded=0;whiteSpace=wrap;html=1;fontSize=16;" vertex="1" parent="VhZChntwZuJe6j0MP377-58">
          <mxGeometry width="175.76564580559256" height="77.89473684210527" as="geometry" />
        </mxCell>
        <mxCell id="VhZChntwZuJe6j0MP377-14" value="进程通信" style="rounded=0;whiteSpace=wrap;html=1;fontSize=16;" vertex="1" parent="VhZChntwZuJe6j0MP377-58">
          <mxGeometry y="97.36842105263159" width="175.76564580559256" height="77.89473684210527" as="geometry" />
        </mxCell>
        <mxCell id="VhZChntwZuJe6j0MP377-15" value="同步" style="rounded=0;whiteSpace=wrap;html=1;fontSize=16;" vertex="1" parent="VhZChntwZuJe6j0MP377-58">
          <mxGeometry y="194.73684210526318" width="175.76564580559256" height="77.89473684210527" as="geometry" />
        </mxCell>
        <mxCell id="VhZChntwZuJe6j0MP377-16" value="套接字" style="rounded=0;whiteSpace=wrap;html=1;fontSize=16;" vertex="1" parent="VhZChntwZuJe6j0MP377-58">
          <mxGeometry x="1024.2343541944074" width="175.76564580559256" height="77.89473684210527" as="geometry" />
        </mxCell>
        <mxCell id="VhZChntwZuJe6j0MP377-17" value="协议栈" style="rounded=0;whiteSpace=wrap;html=1;fontSize=16;" vertex="1" parent="VhZChntwZuJe6j0MP377-58">
          <mxGeometry x="1024.2343541944074" y="97.36842105263159" width="175.76564580559256" height="77.89473684210527" as="geometry" />
        </mxCell>
        <mxCell id="VhZChntwZuJe6j0MP377-63" value="" style="group" vertex="1" connectable="0" parent="VhZChntwZuJe6j0MP377-58">
          <mxGeometry x="782.96" y="292.11" width="177.04" height="90" as="geometry" />
        </mxCell>
        <mxCell id="VhZChntwZuJe6j0MP377-62" value="" style="group" vertex="1" connectable="0" parent="VhZChntwZuJe6j0MP377-63">
          <mxGeometry width="177.04000000000002" height="90" as="geometry" />
        </mxCell>
        <mxCell id="VhZChntwZuJe6j0MP377-59" value="" style="group" vertex="1" connectable="0" parent="VhZChntwZuJe6j0MP377-62">
          <mxGeometry width="177.04000000000002" height="90" as="geometry" />
        </mxCell>
        <mxCell id="VhZChntwZuJe6j0MP377-54" value="" style="rounded=0;whiteSpace=wrap;html=1;shadow=0;fontSize=12;" vertex="1" parent="VhZChntwZuJe6j0MP377-59">
          <mxGeometry width="177.04000000000002" height="90" as="geometry" />
        </mxCell>
        <mxCell id="VhZChntwZuJe6j0MP377-28" value="minix" style="rounded=0;whiteSpace=wrap;html=1;fontSize=12;" vertex="1" parent="VhZChntwZuJe6j0MP377-59">
          <mxGeometry x="15.807142857142859" y="26.470588235294116" width="67.97071428571428" height="15.882352941176467" as="geometry" />
        </mxCell>
        <mxCell id="VhZChntwZuJe6j0MP377-29" value="ext" style="rounded=0;whiteSpace=wrap;html=1;fontSize=12;" vertex="1" parent="VhZChntwZuJe6j0MP377-59">
          <mxGeometry x="91.68142857142858" y="26.470588235294116" width="67.97071428571428" height="15.882352941176467" as="geometry" />
        </mxCell>
        <mxCell id="VhZChntwZuJe6j0MP377-30" value="ext2" style="rounded=0;whiteSpace=wrap;html=1;fontSize=12;" vertex="1" parent="VhZChntwZuJe6j0MP377-59">
          <mxGeometry x="91.68142857142858" y="47.647058823529406" width="67.97071428571428" height="15.882352941176467" as="geometry" />
        </mxCell>
        <mxCell id="VhZChntwZuJe6j0MP377-31" value="ext3" style="rounded=0;whiteSpace=wrap;html=1;fontSize=12;" vertex="1" parent="VhZChntwZuJe6j0MP377-59">
          <mxGeometry x="91.68142857142858" y="68.8235294117647" width="67.97071428571428" height="15.882352941176467" as="geometry" />
        </mxCell>
        <mxCell id="VhZChntwZuJe6j0MP377-33" value="zfs" style="rounded=0;whiteSpace=wrap;html=1;fontSize=12;" vertex="1" parent="VhZChntwZuJe6j0MP377-59">
          <mxGeometry x="15.807142857142859" y="47.647058823529406" width="67.97071428571428" height="15.882352941176467" as="geometry" />
        </mxCell>
        <mxCell id="VhZChntwZuJe6j0MP377-34" value="文件系统" style="text;html=1;strokeColor=none;fillColor=none;align=center;verticalAlign=middle;whiteSpace=wrap;rounded=0;fontSize=12;" vertex="1" parent="VhZChntwZuJe6j0MP377-59">
          <mxGeometry x="39.51785714285714" y="10.588235294117647" width="110.65" height="10.588235294117647" as="geometry" />
        </mxCell>
        <mxCell id="VhZChntwZuJe6j0MP377-35" value="xfs" style="rounded=0;whiteSpace=wrap;html=1;fontSize=12;" vertex="1" parent="VhZChntwZuJe6j0MP377-59">
          <mxGeometry x="15.807142857142859" y="68.8235294117647" width="67.97071428571428" height="15.882352941176467" as="geometry" />
        </mxCell>
        <mxCell id="VhZChntwZuJe6j0MP377-7" value="swap空间" style="rounded=0;whiteSpace=wrap;html=1;fontSize=16;" vertex="1" parent="VhZChntwZuJe6j0MP377-58">
          <mxGeometry x="495.3395472703062" y="194.73684210526312" width="175.76564580559256" height="77.89473684210527" as="geometry" />
        </mxCell>
        <mxCell id="VhZChntwZuJe6j0MP377-68" value="" style="rounded=0;whiteSpace=wrap;html=1;shadow=0;fontSize=12;" vertex="1" parent="1">
          <mxGeometry x="20" width="1250" height="100" as="geometry" />
        </mxCell>
        <mxCell id="VhZChntwZuJe6j0MP377-69" value="用户空间" style="text;html=1;strokeColor=none;fillColor=none;align=center;verticalAlign=middle;whiteSpace=wrap;rounded=0;shadow=0;fontSize=20;" vertex="1" parent="1">
          <mxGeometry x="30" y="10" width="99" height="20" as="geometry" />
        </mxCell>
        <mxCell id="VhZChntwZuJe6j0MP377-70" value="内核空间" style="text;html=1;strokeColor=none;fillColor=none;align=center;verticalAlign=middle;whiteSpace=wrap;rounded=0;shadow=0;fontSize=20;" vertex="1" parent="1">
          <mxGeometry x="30" y="130" width="99" height="20" as="geometry" />
        </mxCell>
        <mxCell id="VhZChntwZuJe6j0MP377-73" style="edgeStyle=orthogonalEdgeStyle;rounded=0;orthogonalLoop=1;jettySize=auto;html=1;exitX=0.5;exitY=0;exitDx=0;exitDy=0;entryX=1;entryY=0.25;entryDx=0;entryDy=0;fontSize=20;" edge="1" parent="1" source="VhZChntwZuJe6j0MP377-72" target="VhZChntwZuJe6j0MP377-68">
          <mxGeometry relative="1" as="geometry" />
        </mxCell>
        <mxCell id="VhZChntwZuJe6j0MP377-74" style="edgeStyle=orthogonalEdgeStyle;rounded=0;orthogonalLoop=1;jettySize=auto;html=1;exitX=0.5;exitY=1;exitDx=0;exitDy=0;fontSize=20;" edge="1" parent="1" source="VhZChntwZuJe6j0MP377-72" target="VhZChntwZuJe6j0MP377-67">
          <mxGeometry relative="1" as="geometry" />
        </mxCell>
        <mxCell id="VhZChntwZuJe6j0MP377-79" style="edgeStyle=orthogonalEdgeStyle;rounded=0;orthogonalLoop=1;jettySize=auto;html=1;exitX=1;exitY=0.5;exitDx=0;exitDy=0;fontSize=12;" edge="1" parent="1" source="VhZChntwZuJe6j0MP377-72" target="VhZChntwZuJe6j0MP377-77">
          <mxGeometry relative="1" as="geometry" />
        </mxCell>
        <mxCell id="VhZChntwZuJe6j0MP377-72" value="虚拟内存&lt;br&gt;（主存）" style="rounded=0;whiteSpace=wrap;html=1;fontSize=16;" vertex="1" parent="1">
          <mxGeometry x="1370" y="70" width="120" height="60" as="geometry" />
        </mxCell>
        <mxCell id="VhZChntwZuJe6j0MP377-75" value="" style="shape=image;verticalLabelPosition=bottom;labelBackgroundColor=#ffffff;verticalAlign=top;aspect=fixed;imageAspect=0;image=https://picb.zhimg.com/80/v2-9a158fa2659d5baaea50be32c20e6dba_1440w.jpg;" vertex="1" parent="1">
          <mxGeometry x="385" y="950" width="520" height="283" as="geometry" />
        </mxCell>
        <mxCell id="VhZChntwZuJe6j0MP377-76" value="磁盘" style="rounded=0;whiteSpace=wrap;html=1;shadow=0;fontSize=12;" vertex="1" parent="1">
          <mxGeometry x="850" y="720" width="70" height="20" as="geometry" />
        </mxCell>
        <mxCell id="VhZChntwZuJe6j0MP377-78" style="edgeStyle=orthogonalEdgeStyle;rounded=0;orthogonalLoop=1;jettySize=auto;html=1;exitX=1;exitY=0.5;exitDx=0;exitDy=0;entryX=0;entryY=0.5;entryDx=0;entryDy=0;fontSize=12;" edge="1" parent="1" source="VhZChntwZuJe6j0MP377-77" target="VhZChntwZuJe6j0MP377-38">
          <mxGeometry relative="1" as="geometry" />
        </mxCell>
        <mxCell id="VhZChntwZuJe6j0MP377-77" value="页表&lt;br&gt;（进程独立）" style="rounded=0;whiteSpace=wrap;html=1;shadow=0;fontSize=12;" vertex="1" parent="1">
          <mxGeometry x="1510" y="70" width="80" height="60" as="geometry" />
        </mxCell>
        <mxCell id="VhZChntwZuJe6j0MP377-80" value="磁盘" style="rounded=0;whiteSpace=wrap;html=1;fontSize=16;" vertex="1" parent="1">
          <mxGeometry x="1635" y="210" width="70" height="30" as="geometry" />
        </mxCell>
        <mxCell id="VhZChntwZuJe6j0MP377-81" value="glibc" style="rounded=0;whiteSpace=wrap;html=1;shadow=0;fontSize=12;" vertex="1" parent="1">
          <mxGeometry x="820" y="30" width="180" height="60" as="geometry" />
        </mxCell>
      </root>
    </mxGraphModel>
  </diagram>
</mxfile>
